<?xml version="1.0" standalone="no"?>
<!DOCTYPE svg PUBLIC "-//W3C//DTD SVG 20010904//EN"
 "http://www.w3.org/TR/2001/REC-SVG-20010904/DTD/svg10.dtd">
<svg version="1.0" xmlns="http://www.w3.org/2000/svg"
 width="512.000000pt" height="512.000000pt" viewBox="0 0 512.000000 512.000000"
 preserveAspectRatio="xMidYMid meet">
<metadata>
Created by potrace 1.14, written by Peter Selinger 2001-2017
</metadata>
<g transform="translate(0.000000,512.000000) scale(0.100000,-0.100000)"
fill="#000000" stroke="none">
<path d="M850 4781 c-30 -10 -75 -28 -100 -41 -56 -29 -147 -122 -182 -187
-61 -111 -58 -25 -58 -1688 0 -1664 -3 -1577 58 -1688 57 -106 158 -189 279
-228 48 -16 89 -19 273 -19 l217 0 6 -137 c3 -106 10 -152 26 -197 55 -155
180 -270 336 -311 52 -13 215 -15 1277 -15 847 0 1233 3 1270 11 166 34 308
164 358 328 20 62 20 100 20 1595 0 996 -4 1546 -11 1575 -29 129 -142 266
-262 321 -89 40 -162 50 -374 50 l-183 0 0 93 c0 50 -5 121 -10 157 -28 179
-164 330 -349 386 -36 12 -271 14 -1290 13 -1166 0 -1250 -1 -1301 -18z m2723
-1709 c20 -13 49 -44 64 -69 57 -99 22 -228 -76 -280 l-44 -23 -707 0 -707 0
-44 23 c-24 13 -57 43 -74 66 -26 37 -30 51 -30 111 0 60 4 74 30 111 17 23
50 53 75 66 l44 24 716 -3 715 -3 38 -23z m-587 -877 c75 -38 99 -80 99 -175
0 -87 -20 -127 -84 -171 l-36 -24 -430 -3 -431 -3 -44 24 c-25 13 -58 43 -75
66 -26 37 -30 51 -30 111 0 60 4 74 30 111 17 23 50 53 74 66 l44 23 417 0
416 0 50 -25z"/>
</g>
</svg>
